<svg width="30" height="30" viewBox="0 0 30 30" xmlns="http://www.w3.org/2000/svg" role="img" aria-label="browserlane">
  <rect width="30" height="30" rx="5" fill="#cc785c"/>
  <g fill="#ffffff">
    <g transform="translate(4.465271 20.565357)"><path d="M 1.40625 -14.125 L 3.84375 -14.125 L 3.84375 -10.71875 C 3.84375 -10.539062 3.835938 -10.335938 3.828125 -10.109375 C 3.828125 -9.878906 3.820312 -9.671875 3.8125 -9.484375 C 3.78125 -9.265625 3.757812 -9.035156 3.75 -8.796875 L 3.921875 -8.796875 C 4.054688 -9.429688 4.367188 -9.925781 4.859375 -10.28125 C 5.359375 -10.644531 5.992188 -10.828125 6.765625 -10.828125 C 7.328125 -10.828125 7.832031 -10.726562 8.28125 -10.53125 C 8.726562 -10.34375 9.109375 -10.066406 9.421875 -9.703125 C 9.742188 -9.347656 9.988281 -8.914062 10.15625 -8.40625 C 10.332031 -7.894531 10.421875 -7.316406 10.421875 -6.671875 L 10.421875 -4.03125 C 10.421875 -3.382812 10.332031 -2.796875 10.15625 -2.265625 C 9.988281 -1.742188 9.742188 -1.300781 9.421875 -0.9375 C 9.109375 -0.570312 8.726562 -0.289062 8.28125 -0.09375 C 7.832031 0.09375 7.328125 0.1875 6.765625 0.1875 C 5.992188 0.1875 5.359375 0.0078125 4.859375 -0.34375 C 4.367188 -0.707031 4.054688 -1.210938 3.921875 -1.859375 L 3.75 -1.859375 L 3.75 0 L 1.40625 0 Z M 3.84375 -4.03125 C 3.84375 -3.394531 4.023438 -2.882812 4.390625 -2.5 C 4.765625 -2.113281 5.269531 -1.921875 5.90625 -1.921875 C 6.5625 -1.921875 7.078125 -2.113281 7.453125 -2.5 C 7.828125 -2.894531 8.015625 -3.421875 8.015625 -4.078125 L 8.015625 -6.609375 C 8.015625 -7.273438 7.828125 -7.796875 7.453125 -8.171875 C 7.078125 -8.554688 6.5625 -8.75 5.90625 -8.75 C 5.28125 -8.75 4.78125 -8.550781 4.40625 -8.15625 C 4.03125 -7.769531 3.84375 -7.253906 3.84375 -6.609375 Z M 3.84375 -4.03125 "/></g>
    <g transform="translate(13.919394 20.565357)"><path d="M 6.40625 -14.125 L 6.40625 -3.4375 C 6.40625 -3.039062 6.515625 -2.734375 6.734375 -2.515625 C 6.960938 -2.296875 7.265625 -2.1875 7.640625 -2.1875 L 10.8125 -2.1875 L 10.8125 0 L 7.46875 0 C 6.382812 0 5.53125 -0.300781 4.90625 -0.90625 C 4.289062 -1.507812 3.984375 -2.351562 3.984375 -3.4375 L 3.984375 -11.9375 L 0.59375 -11.9375 L 0.59375 -14.125 Z M 6.40625 -14.125 "/></g>
  </g>
</svg>
